<?xml version="1.0" encoding="utf-8"?>
<!-- Svg Vector Icons : http://www.onlinewebfonts.com/icon -->
<!DOCTYPE svg PUBLIC "-//W3C//DTD SVG 1.1//EN" "http://www.w3.org/Graphics/SVG/1.1/DTD/svg11.dtd">
<svg version="1.1" xmlns="http://www.w3.org/2000/svg" xmlns:xlink="http://www.w3.org/1999/xlink" x="0px" y="0px" viewBox="0 0 256 256" enable-background="new 0 0 256 256" xml:space="preserve">
<metadata> Svg Vector Icons : http://www.onlinewebfonts.com/icon </metadata>
<g><g><path fill="#000000" d="M99.9,130.7h63.7v-5.5H99.9l21.4-21.4l-3.5-3.5L90.2,128h0l0,0l0.3,0.2l27.4,27.4l3.5-3.5L99.9,130.7z M10,128C10,62.8,62.8,10,128,10c65.2,0,118,52.8,118,118c0,65.2-52.8,118-118,118C62.8,246,10,193.2,10,128z M240.5,128c0-62.1-50.4-112.5-112.5-112.5C65.9,15.5,15.5,65.9,15.5,128c0,62.1,50.4,112.5,112.5,112.5C190.1,240.5,240.5,190.1,240.5,128z"/></g></g>
</svg>